<svg viewBox="0 0 32 32" xmlns="http://www.w3.org/2000/svg"><path d="M19.81.76h-9.393C6.12.76 2.074 3.776 2.074 7.546c0 3.852 2.929 6.848 7.301 6.848.305 0 .6-.069.89-.09-.286.541-.485 1.123-.485 1.758 0 1.071.574 1.926 1.301 2.635-.546 0-1.08.008-1.661.008C4.098 18.706 0 22.094 0 25.609c0 3.462 4.492 5.63 9.815 5.63 6.069 0 9.422-3.447 9.422-6.909 0-2.775-.82-4.439-3.351-6.234-.867-.611-2.523-2.103-2.523-2.981 0-1.027.293-1.533 1.841-2.743 1.583-1.237 2.706-2.714 2.706-4.741 0-2.409-1.036-5.349-3.052-5.349h3.429L19.81.76zm-3.153 22.97c.073.323.117.654.117.989 0 2.798-1.806 4.984-6.979 4.984-3.68 0-6.336-2.328-6.336-5.126 0-2.741 3.296-5.026 6.978-4.984a8.13 8.13 0 012.383.379c1.998 1.392 3.43 2.177 3.837 3.758zm-5.894-10.436c-2.47-.072-4.818-2.763-5.243-6.004-.425-3.246 1.231-5.728 3.7-5.655 2.469.076 4.818 2.679 5.243 5.922.426 3.242-1.23 5.81-3.7 5.737zm16.666-.354V8.369h-3.048v4.571H19.81v3.048h4.571v4.571h3.048v-4.571H32V12.94z" fill="#ebebeb"/></svg>