<svg xmlns="http://www.w3.org/2000/svg" width="94" height="94"><g fill="#ebebeb"><path d="M89 0H5a5 5 0 00-5 5v84a5 5 0 005 5h84a5 5 0 005-5V5a5 5 0 00-5-5zM31.088 85.553c-14.553 0-21.571-6.935-21.571-14.381 0-3.617 1.803-8.742 7.724-12.264 6.219-3.822 14.652-4.322 19.17-4.633C35 52.465 33.4 50.557 33.4 47.441c0-1.708.502-2.713.999-3.922-1.105.103-2.204.202-3.208.202-10.634 0-16.654-7.95-16.654-15.792 0-4.62 2.104-9.752 6.418-13.473 5.724-4.726 13.541-6.008 18.966-6.008h19.771l-6.525 4.099H46.95c2.307 1.909 7.117 5.931 7.117 13.578 0 7.436-4.209 10.964-8.421 14.28-1.306 1.304-2.813 2.712-2.813 4.929 0 2.207 1.508 3.413 2.608 4.325l3.617 2.809c4.414 3.72 8.428 7.138 8.428 14.083-.004 9.454-9.14 19.002-26.398 19.002zM84.482 45.77H74.395v10.117H69.43V45.77H59.391v-5.02H69.43V30.695h4.965V40.75h10.088v5.02z"/><path d="M45.24 30.749c0-7.243-4.317-18.503-12.64-18.503-2.616 0-5.42 1.307-7.029 3.32-1.707 2.114-2.204 4.821-2.204 7.443 0 6.734 3.911 17.894 12.544 17.894 2.507 0 5.207-1.2 6.821-2.811 2.308-2.321 2.508-5.532 2.508-7.343zm-5.42 26.446c-.8-.102-1.302-.102-2.305-.102-.904 0-6.324.197-10.537 1.615-2.208.799-8.627 3.214-8.627 10.354 0 7.141 6.922 12.276 17.658 12.276 9.635 0 14.755-4.637 14.755-10.862 0-5.142-3.313-7.849-10.944-13.281z"/></g></svg>