<svg xmlns="http://www.w3.org/2000/svg" viewBox="0 0 458.71 458.71"><path fill="#666" d="M172.931 446.171l68.963-67.396L199.576 315z"/><path fill="transparent" d="M195.396 347.951c-3.657-2.612-1.045-6.269-1.567-10.449s.522-8.359 3.135-12.016l113.371-157.257-150.466 134.269c-1.567 1.567-4.18 3.135-7.314 3.657l20.376 140.016 26.645-95.608-4.18-2.612z"/><path fill="#666" d="M458.188 15.673c-.522-2.612-1.567-5.747-4.18-7.837l-1.045-1.045c-2.612-2.612-6.269-3.657-9.927-3.657h-2.09c-2.09 0-4.18 1.045-5.747 2.09L8.359 231.967C3.135 234.58 0 240.326 0 246.596c.522 6.269 4.18 11.494 9.404 13.584l133.747 55.902c2.612 1.045 5.747 1.567 8.359 1.045.522 0 1.045 0 1.045-.522 2.612-.522 5.224-2.09 7.314-3.657L310.334 168.23 191.739 325.486c-2.612 3.657-3.657 7.837-3.135 12.016.522 4.18 3.135 7.837 6.792 10.449l4.18 2.612 42.318 28.212 2.612 1.567 106.58 72.62c2.612 1.567 5.747 2.612 8.882 2.612 2.09 0 4.18-.522 5.747-1.045 4.702-2.09 8.359-6.269 9.404-11.494l83.069-421.094c0-1.045.522-2.09.522-3.135 0-1.043 0-2.088-.522-3.133z"/></svg>