<svg height="64" width="64" xmlns="http://www.w3.org/2000/svg"><path d="M32.71 13.3c-.39-.39-1.03-.39-1.42 0L15.45 29.14a.99.99 0 00-.29.71V55.6c0 .55.44 1 1 1h9.89V39.75c0-.55.45-1 1-1h9.9c.55 0 1 .45 1 1V56.6h9.89c.56 0 1-.45 1-1V29.85c0-.27-.1-.52-.29-.71L32.71 13.3z"/><path d="M54.866 29.852l-8.373-8.373v-9.71a1 1 0 00-1-1h-5.942a1 1 0 00-1 1v1.768l-5.844-5.843a1 1 0 00-1.414 0L9.134 29.852a2.935 2.935 0 00-.646 3.249 2.935 2.935 0 002.754 1.84h1.918v-5.092c0-.805.311-1.56.876-2.124l15.84-15.84c.567-.566 1.321-.878 2.124-.878s1.557.312 2.123.877l15.84 15.84c.565.565.877 1.32.877 2.125v5.092h1.919c1.227 0 2.282-.705 2.753-1.84s.223-2.38-.646-3.25z"/></svg>