<svg xmlns="http://www.w3.org/2000/svg" width="135" height="87.91"><path d="M134.335 75.593a8.458 8.458 0 01-1.659 2.217 7.422 7.422 0 01-2.142 1.31 5.658 5.658 0 01-2.073.47c-.312 0-.208-.08.243-.31a9.808 9.808 0 001.795-1.2 12.247 12.247 0 002.04-2.138 5.574 5.574 0 00.967-3.259 8.388 8.388 0 00-.38-2.29 7.207 7.207 0 00-1.175-2.33 6.613 6.613 0 00-2.108-1.823 6.073 6.073 0 00-3.111-.775 18.758 18.758 0 00-7.6 1.591 45 45 0 00-7.12 3.959 117.931 117.931 0 00-6.945 5.275 72.936 72.936 0 01-7.257 5.36 2.51 2.51 0 01-.485.31 46.046 46.046 0 01-7.5 4.11 22.63 22.63 0 01-9.089 1.82 18.418 18.418 0 01-6.047-.85 14.522 14.522 0 01-4.078-2.02 6.838 6.838 0 01-2.939-4.41 2.045 2.045 0 01.1-1.16 1.233 1.233 0 011.282-.6 1.08 1.08 0 01.933.59 4.89 4.89 0 01.483 1.28c.1.42.173.85.242 1.24.036.43.068.62.068.7a2.254 2.254 0 001.038 1.74 14.817 14.817 0 002.523 1.4 19.816 19.816 0 003.076.93 15.508 15.508 0 002.694.31 20.019 20.019 0 008.606-1.9 38.8 38.8 0 002.719-1.39 7.355 7.355 0 01-1.938.43c-.685.14-1.373.24-2.065.33a29.21 29.21 0 01-4.18.23 21.044 21.044 0 01-7.881-1.53 13.552 13.552 0 01-7.875-9.408 13.55 13.55 0 01-7.875 9.408 21.044 21.044 0 01-7.881 1.53 29.21 29.21 0 01-4.18-.23c-.691-.09-1.38-.19-2.065-.33a7.357 7.357 0 01-1.937-.43c.9.51 1.812.97 2.718 1.39a20.019 20.019 0 008.606 1.9 15.5 15.5 0 002.694-.31 19.816 19.816 0 003.076-.93 14.828 14.828 0 002.524-1.4 2.253 2.253 0 001.037-1.74c0-.08.032-.27.069-.7.068-.39.137-.82.241-1.24a4.89 4.89 0 01.483-1.28 1.08 1.08 0 01.933-.59 1.233 1.233 0 011.282.6 2.045 2.045 0 01.1 1.16 6.831 6.831 0 01-2.939 4.41 14.522 14.522 0 01-4.078 2.02 18.416 18.416 0 01-6.046.85 22.627 22.627 0 01-9.089-1.82 46.014 46.014 0 01-7.5-4.11 2.51 2.51 0 01-.485-.31 73.053 73.053 0 01-7.257-5.36c-2.315-1.9-4.63-3.646-6.945-5.275a45 45 0 00-7.12-3.959 18.754 18.754 0 00-7.6-1.591 6.073 6.073 0 00-3.111.775 6.613 6.613 0 00-2.108 1.823 7.227 7.227 0 00-1.175 2.33 8.388 8.388 0 00-.38 2.29 5.581 5.581 0 00.967 3.259 12.284 12.284 0 002.04 2.138 9.808 9.808 0 001.8 1.2c.451.23.555.31.243.31a5.658 5.658 0 01-2.073-.47 7.417 7.417 0 01-2.141-1.31 8.44 8.44 0 01-1.66-2.217 6.732 6.732 0 01-.657-3.1 7.044 7.044 0 012.522-5.627c1.659-1.436 4.252-2.135 7.707-2.135a19.922 19.922 0 017.706 1.514 40.556 40.556 0 017.015 3.8 72.989 72.989 0 016.071 4.554c-.151-.27-.3-.542-.435-.819-1.539-3.1-3.141-7.574-2.151-11.07.8-2.807 4.127-4.657 6.7-2.592A4.256 4.256 0 0134.572 67a.622.622 0 01-.885-.2.706.706 0 01-.268-.693l.71-4.142a2.227 2.227 0 00-2.577-1.119c-2.855 1.174-1.97 5.7-1.355 8a20.985 20.985 0 004.21 8.117 24.3 24.3 0 0011.426 5.19 26.376 26.376 0 004.779.34 11.218 11.218 0 0011.782-9.45 13.563 13.563 0 00-1.549-9.531 11.837 11.837 0 00-7.806-5.557 10.668 10.668 0 00-7.572 1.423 10.365 10.365 0 00-4.776 5.769c-1.238 4.178-.028 8.967 3.787 11.406a8.672 8.672 0 006.927 1.37c2.322-.66 4.632-2.524 4.743-5.147a5.432 5.432 0 00-1.1-3.432 4.534 4.534 0 01-2.892 2.82 3.317 3.317 0 01-3.367-1.062c-1.9-2.607 1.453-5.105 3.989-4.574a5.944 5.944 0 014.658 6.933 7.767 7.767 0 01-7.482 6.062 10.816 10.816 0 01-8.177-3.6 11.3 11.3 0 01-.515-14.623 14.024 14.024 0 017.84-4.621 16.227 16.227 0 013.657-.376 30.067 30.067 0 1129.441 0 16.236 16.236 0 013.7.375 14.02 14.02 0 017.84 4.621 11.3 11.3 0 01-.515 14.635 10.816 10.816 0 01-8.177 3.6 7.768 7.768 0 01-7.482-6.062 5.945 5.945 0 014.658-6.933c2.537-.531 5.886 1.967 3.989 4.574a3.316 3.316 0 01-3.367 1.062 4.534 4.534 0 01-2.892-2.82 5.432 5.432 0 00-1.1 3.432c.112 2.623 2.421 4.487 4.744 5.147a8.669 8.669 0 006.926-1.37c3.816-2.439 5.025-7.228 3.787-11.406a10.361 10.361 0 00-4.776-5.769 10.668 10.668 0 00-7.572-1.423 11.842 11.842 0 00-7.806 5.557 13.563 13.563 0 00-1.549 9.531 11.218 11.218 0 0011.782 9.45 26.376 26.376 0 004.779-.34 24.3 24.3 0 0011.426-5.19 20.985 20.985 0 004.21-8.117c.615-2.307 1.5-6.83-1.354-8a2.228 2.228 0 00-2.578 1.119q.354 2.072.71 4.142a.706.706 0 01-.268.693.622.622 0 01-.885.2 4.257 4.257 0 01-.573-6.884c2.571-2.065 5.9-.215 6.7 2.592.99 3.5-.612 7.973-2.151 11.07-.138.277-.284.549-.435.819a73.155 73.155 0 016.071-4.554 40.556 40.556 0 017.015-3.8 19.922 19.922 0 017.706-1.514c3.456 0 6.048.7 7.708 2.135a7.046 7.046 0 012.521 5.627 6.732 6.732 0 01-.657 3.091zM95.227 30.078a27.745 27.745 0 10-27.745 27.761 27.783 27.783 0 0027.745-27.761zM72.533 59.736a30.177 30.177 0 01-10.052.009 14.816 14.816 0 015.021 8.02 14.826 14.826 0 015.031-8.029zM43.509 30.078a23.973 23.973 0 1123.973 23.986 24.005 24.005 0 01-23.973-23.986zm46.4 0a22.425 22.425 0 10-22.425 22.437 22.455 22.455 0 0022.423-22.437zM14.251 76.41a11.849 11.849 0 011.935-1.282 11.587 11.587 0 012-.777 7.723 7.723 0 011.727-.233 10.044 10.044 0 014.147.932 26.585 26.585 0 014.216 2.29 48.16 48.16 0 014.216 2.95c1.416 1.05 2.764 2.06 4.077 2.99.382.27.726.54 1.107.77.9.62 1.8 1.13 2.626 1.59a8.1 8.1 0 003.283 1.09.473.473 0 01.483.19.4.4 0 01-.173.47 13.81 13.81 0 01-6.219-1.67 4.692 4.692 0 01-.656-.31 67.387 67.387 0 01-6.637-4.19c-2.107-1.51-4.042-2.91-5.84-4.15a8.371 8.371 0 00-4.56-1.866 7.576 7.576 0 00-6.566 3.3.684.684 0 01-.622.16c-.138-.04-.173-.2-.07-.51a7.6 7.6 0 011.524-1.744zm77.167 10.32a8.1 8.1 0 003.284-1.09c.829-.46 1.728-.97 2.625-1.59.381-.23.725-.5 1.107-.77 1.313-.93 2.661-1.94 4.077-2.99a48.31 48.31 0 014.216-2.95 26.585 26.585 0 014.216-2.29 10.044 10.044 0 014.147-.932 7.723 7.723 0 011.727.233 11.627 11.627 0 012.006.777 11.884 11.884 0 011.934 1.282 7.578 7.578 0 011.521 1.74c.1.31.069.47-.07.51a.684.684 0 01-.622-.16 7.576 7.576 0 00-6.566-3.3 8.371 8.371 0 00-4.56 1.866c-1.8 1.24-3.733 2.64-5.84 4.15a67.269 67.269 0 01-6.637 4.19 4.639 4.639 0 01-.656.31 13.81 13.81 0 01-6.219 1.67.4.4 0 01-.173-.47.473.473 0 01.481-.186z" fill="#222" fill-rule="evenodd"/></svg>